<svg id="Layer_1" data-name="Layer 1" xmlns="http://www.w3.org/2000/svg" viewBox="0 0 493.47 493.55"><defs><style>.cls-1{fill:#fff;}</style></defs><title>Facebook-Icon</title><path class="cls-1" d="M497.14,37H58.08A27.24,27.24,0,0,0,30.84,64.24V503.3a27.24,27.24,0,0,0,27.24,27.25h236.4V339.67h-64.1V265h64.1V210c0-63.77,38.93-98.46,95.81-98.46a530.83,530.83,0,0,1,57.49,2.94v66.62H408.53c-30.94,0-36.94,14.69-36.94,36.27V265h74L436,339.67H371.59V530.55H497.14A27.25,27.25,0,0,0,524.3,503.3V64.24A27.24,27.24,0,0,0,497.14,37Z" transform="translate(-30.84 -37)"/></svg>