<svg id="Layer_1" data-name="Layer 1" xmlns="http://www.w3.org/2000/svg" viewBox="0 0 196.5 196.13"><defs><style>.cls-1{fill:#fff;}</style></defs><title>Instagram</title><path class="cls-1" d="M98.35,18.87c25.68,0,28.73.1,38.87.56,9.38.43,14.47,2,17.86,3.31a29.78,29.78,0,0,1,11.06,7.2A29.65,29.65,0,0,1,173.34,41c1.32,3.39,2.89,8.48,3.31,17.86.47,10.15.56,13.19.56,38.88s-.09,28.73-.56,38.87c-.42,9.38-2,14.47-3.31,17.86a31.83,31.83,0,0,1-18.26,18.26c-3.39,1.32-8.48,2.89-17.86,3.31-10.14.47-13.19.57-38.87.57s-28.74-.1-38.88-.57c-9.38-.42-14.47-2-17.86-3.31a31.83,31.83,0,0,1-18.26-18.26C22,151.08,20.47,146,20,136.61c-.46-10.14-.56-13.19-.56-38.87S19.58,69,20,58.86c.43-9.38,2-14.47,3.31-17.86a29.78,29.78,0,0,1,7.2-11.06,29.78,29.78,0,0,1,11.06-7.2c3.39-1.32,8.48-2.88,17.86-3.31,10.15-.46,13.19-.56,38.88-.56m0-17.34c-26.13,0-29.41.12-39.67.58S41.45,4.21,35.33,6.59a47,47,0,0,0-17,11.09,47.15,47.15,0,0,0-11.1,17c-2.37,6.12-4,13.11-4.47,23.35s-.58,13.54-.58,39.67.11,29.4.58,39.66,2.1,17.23,4.47,23.35a47.15,47.15,0,0,0,11.1,17,47.15,47.15,0,0,0,17,11.1c6.12,2.38,13.11,4,23.35,4.47s13.54.58,39.67.58,29.4-.11,39.66-.58,17.23-2.09,23.35-4.47a49.23,49.23,0,0,0,28.14-28.14c2.38-6.12,4-13.11,4.47-23.35s.58-13.54.58-39.66-.11-29.41-.58-39.67-2.09-17.23-4.47-23.35a47.15,47.15,0,0,0-11.1-17,47,47,0,0,0-17-11.09c-6.12-2.38-13.11-4-23.35-4.48s-13.54-.58-39.66-.58Z"/><path class="cls-1" d="M98.35,48.34a49.4,49.4,0,1,0,49.4,49.4A49.4,49.4,0,0,0,98.35,48.34Zm0,81.46a32.07,32.07,0,1,1,32.06-32.06A32.06,32.06,0,0,1,98.35,129.8Z"/><circle class="cls-1" cx="149.7" cy="46.38" r="11.54"/></svg>