<svg id="Layer_1" data-name="Layer 1" xmlns="http://www.w3.org/2000/svg" viewBox="0 0 541 440"><defs><style>.cls-1{fill:#fff;}</style></defs><title>Twitter-Icon</title><g id="Logo_FIXED" data-name="Logo FIXED"><path class="cls-1" d="M177.74,510.19c204.29,0,316-169.28,316-316,0-4.83,0-9.65-.24-14.27A227.26,227.26,0,0,0,549,122.23a225.64,225.64,0,0,1-63.8,17.52A111,111,0,0,0,534,78.25a224.82,224.82,0,0,1-70.47,26.93,111.14,111.14,0,0,0-192.09,76,102.06,102.06,0,0,0,3,25.34,315,315,0,0,1-229-116A111,111,0,0,0,80.09,238.77a109.07,109.07,0,0,1-50.33-13.93v1.37a111.17,111.17,0,0,0,89.16,108.93,110.22,110.22,0,0,1-29.24,3.94,107.15,107.15,0,0,1-21-2.08,110.9,110.9,0,0,0,103.64,77.16A223.24,223.24,0,0,1,34.48,461.67,202.1,202.1,0,0,1,8,460.05a309.47,309.47,0,0,0,169.74,50.14" transform="translate(-8 -70.19)"/></g></svg>