<svg id="Layer_1" data-name="Layer 1" xmlns="http://www.w3.org/2000/svg" viewBox="0 0 549.99 122.75"><defs><style>.cls-1{fill:#fff;}</style></defs><title>Youtube-Icon</title><path class="cls-1" d="M257.6,335.09q-5.21-3.51-7.39-10.94T248,304.46V293.32q0-12.44,2.5-19.94t7.85-10.94q5.34-3.45,14-3.45T286,262.5q5.13,3.51,7.53,10.94t2.37,19.88v11.16q0,12.3-2.31,19.76t-7.53,10.94q-5.2,3.45-14.11,3.45Q262.81,338.6,257.6,335.09Zm19.45-12q1.44-3.76,1.44-12.3V286.8q0-8.28-1.44-12.11c-1-2.55-2.66-3.83-5.08-3.83s-4,1.28-5,3.83-1.45,6.59-1.45,12.11v23.95q0,8.53,1.38,12.3t5,3.76a5.2,5.2,0,0,0,5.15-3.76Z" transform="translate(-3.01 -223.42)"/><path class="cls-1" d="M524,304.67v3.89a105.52,105.52,0,0,0,.44,11.1,10.53,10.53,0,0,0,1.82,5.39,5.18,5.18,0,0,0,4.26,1.7q3.9,0,5.33-3t1.57-10l14.91.88a25.48,25.48,0,0,1,.12,2.76q0,10.67-5.82,15.91t-16.5,5.27q-12.79,0-17.9-8t-5.14-24.85V292.24q0-17.31,5.33-25.26t18.25-8q9,0,13.67,3.26T551,272.42q2,6.9,2,19.08v13.17Zm2.2-32.37a10.7,10.7,0,0,0-1.76,5.33,107.89,107.89,0,0,0-.44,11.23v5.52h12.67v-5.52a93.59,93.59,0,0,0-.5-11.23c-.34-2.54-.94-4.34-1.82-5.39a6,6,0,0,0-8.15.06Z" transform="translate(-3.01 -223.42)"/><path class="cls-1" d="M215.46,303.23l-19.7-71.13H213l6.9,32.24q2.63,11.93,3.89,20.32h.49q.89-6,3.89-20.2l7.16-32.36h17.18l-20,71.13v34.11h-17Z" transform="translate(-3.01 -223.42)"/><path class="cls-1" d="M351.82,260.45v76.89H338.29l-1.5-9.4h-.38q-5.52,10.67-16.56,10.66-7.65,0-11.28-5t-3.64-15.69V260.45h17.3v56.41q0,5.14,1.14,7.34a3.89,3.89,0,0,0,3.76,2.19,7.69,7.69,0,0,0,4.32-1.37,8.66,8.66,0,0,0,3.08-3.52V260.45Z" transform="translate(-3.01 -223.42)"/><path class="cls-1" d="M440.6,260.45v76.89H427.06l-1.51-9.4h-.37q-5.52,10.67-16.56,10.66-7.65,0-11.29-5t-3.63-15.69V260.45H411v56.41q0,5.14,1.14,7.34a3.9,3.9,0,0,0,3.75,2.19,7.75,7.75,0,0,0,4.34-1.37,8.71,8.71,0,0,0,3.07-3.52V260.45Z" transform="translate(-3.01 -223.42)"/><path class="cls-1" d="M398.85,246H381.67v91.31h-16.9V246H347.55V232.11h51.3Z" transform="translate(-3.01 -223.42)"/><path class="cls-1" d="M497.9,272.74q-1.57-7.26-5.08-10.54t-9.66-3.26a16.1,16.1,0,0,0-9,2.71,18.33,18.33,0,0,0-6.4,7.08h-.12V228.22H451.05V337.34h14.3l1.76-7.27h.4a14.75,14.75,0,0,0,6,6.15,17.93,17.93,0,0,0,8.94,2.26q8.77,0,12.93-8.1t4.13-25.27V292.94Q499.47,280,497.9,272.74ZM482,304.11a99.93,99.93,0,0,1-.69,13.17c-.46,3.17-1.23,5.44-2.32,6.77a5.35,5.35,0,0,1-4.39,2,8.13,8.13,0,0,1-4-1,7.58,7.58,0,0,1-3-3V278.4a11,11,0,0,1,3-5.15,6.68,6.68,0,0,1,4.65-2,4.67,4.67,0,0,1,4.07,2.08c1,1.37,1.63,3.69,2,7a131.82,131.82,0,0,1,.56,13.91Z" transform="translate(-3.01 -223.42)"/><path class="cls-1" d="M174.75,242.56a22,22,0,0,0-15.51-15.51c-13.69-3.63-68.53-3.63-68.53-3.63s-54.85,0-68.53,3.63a22,22,0,0,0-15.5,15.51C3,256.22,3,284.78,3,284.78S3,313.32,6.67,327A22,22,0,0,0,22.18,342.5c13.69,3.67,68.59,3.67,68.59,3.67s54.84,0,68.53-3.67A22,22,0,0,0,174.81,327c3.66-13.68,3.66-42.22,3.66-42.22S178.41,256.22,174.75,242.56ZM73.17,311.09V258.47l45.57,26.31Z" transform="translate(-3.01 -223.42)"/></svg>